# xmcd CD database file
#
# Track frame offsets:
#	150
#	21609
#	51064
#	64446
#	89071
#	118144
#	140772
#	161387
#	185592
#	205946
#	230746
#	266710
#	290561
#	313245
#
# Disc length: 4460 seconds
#
# Revision: 3
# Processed by: cddbd v1.5.1PL0 Copyright (c) Steve Scherf et al.
# Submitted via: CDex 1.40Beta8
#
DISCID=e8116a0e
DTITLE=Billy Paul - Perfil
DYEAR=2001
DGENRE=Soul
TTITLE0=Me and mrs. Jones
TTITLE1=Your song
TTITLE2=Thanks for saving my life 
TTITLE3=July, July, July, July
TTITLE4=Let's stay together
TTITLE5=Let'em in
TTITLE6=It's too late
TTITLE7=America (we need the light)
TTITLE8=Mrs. Robinson
TTITLE9=Sooner or later
TTITLE10=Black wonders of the world
TTITLE11=Am I black enough for you
TTITLE12=Your song 'Power mix'
TTITLE13=Bring the family back 'Power mix'
EXTD=Globo/Columbia 2321-2 YEAR: 2001 ID3G: 42
EXTT0=
EXTT1=
EXTT2=
EXTT3=
EXTT4=
EXTT5=
EXTT6=
EXTT7=
EXTT8=
EXTT9=
EXTT10=
EXTT11=
EXTT12=
EXTT13=
PLAYORDER=
